<svg id="Layer_1" data-name="Layer 1" xmlns="http://www.w3.org/2000/svg" viewBox="0 0 1941.6 1200">
  <path d="M1507.21,88.77a274.88,274.88,0,0,0,12.34,81.69A105.11,105.11,0,0,0,1410,235a170.17,170.17,0,0,0-225.1,78.1,442.8,442.8,0,0,0-242.4-71.77c-215.27,0-394.85,152.87-436.09,356q-4.44-.15-8.91-.15c-134.69,0-246.75,96.82-270.4,224.66A442.54,442.54,0,0,0,0,755.08V0H1521.86A274.47,274.47,0,0,0,1507.21,88.77Z" fill="#ccdafa"/>
  <path d="M1941.6,312.89V1200H437.4a446.47,446.47,0,0,0-4.07-60.34A275.42,275.42,0,0,0,699.25,1059a442.77,442.77,0,0,0,243.24,72.32c245.77,0,445-199.23,445-445a444.93,444.93,0,0,0-19.43-130.45,170,170,0,0,0,139.15-167.2q0-4.51-.23-9h.23a105,105,0,0,0,101.4-77.69,275,275,0,0,0,333,10.84Z" fill="#ccdafa"/>
  <path d="M197.83,82.29A122.88,122.88,0,0,1,0,179.67V0H166.15A122.21,122.21,0,0,1,197.83,82.29Z" fill="#7d8fbb"/>
  <path d="M1941.6,973.57V1200H1727.52A172.08,172.08,0,0,1,1941.6,973.57Z" fill="#a7bffa"/>
  <path d="M1941.6,0V312.89a275,275,0,0,1-333-10.84,105,105,0,0,1-101.4,77.69H1507q.23,4.45.23,9a170,170,0,0,1-139.15,167.2,444.93,444.93,0,0,1,19.43,130.45c0,245.77-199.23,445-445,445A442.77,442.77,0,0,1,699.25,1059a275.42,275.42,0,0,1-265.92,80.62A446.47,446.47,0,0,1,437.4,1200H0V755.08a442.54,442.54,0,0,1,227.09,66.77C250.74,694,362.8,597.19,497.49,597.19q4.47,0,8.91.15c41.24-203.11,220.82-356,436.09-356a442.8,442.8,0,0,1,242.4,71.77A170.17,170.17,0,0,1,1410,235a105.11,105.11,0,0,1,109.56-64.57A276.41,276.41,0,0,1,1521.86,0Z" fill="#ebf1fe"/>
</svg>
